<svg xmlns="http://www.w3.org/2000/svg" width="1600" height="1000" viewBox="0 0 1600 1000">
  <defs>
    <linearGradient id="bgG" x1="0" y1="0" x2="1" y2="1">
      <stop offset="0" stop-color="#0B0B0B"/>
      <stop offset="0.55" stop-color="#090909"/>
      <stop offset="1" stop-color="#12100E"/>
    </linearGradient>
    <radialGradient id="gA" cx="0.5" cy="0.5" r="0.5">
      <stop offset="0" stop-color="#D97A4F" stop-opacity="0.30"/>
      <stop offset="1" stop-color="#D97A4F" stop-opacity="0"/>
    </radialGradient>
    <radialGradient id="gB" cx="0.5" cy="0.5" r="0.5">
      <stop offset="0" stop-color="#A95C3D" stop-opacity="0.24"/>
      <stop offset="1" stop-color="#A95C3D" stop-opacity="0"/>
    </radialGradient>
    <pattern id="dots" width="46" height="46" patternUnits="userSpaceOnUse">
      <circle cx="2.5" cy="2.5" r="1.8" fill="#ffffff" fill-opacity="0.05"/>
    </pattern>
    <radialGradient id="vig" cx="0.5" cy="0.5" r="0.72">
      <stop offset="0.55" stop-color="#000" stop-opacity="0"/>
      <stop offset="1" stop-color="#000" stop-opacity="0.45"/>
    </radialGradient>
    <filter id="sh" x="-40%" y="-40%" width="180%" height="180%"><feDropShadow dx="0" dy="26" stdDeviation="30" flood-color="#000000" flood-opacity="0.5"/></filter>
    
  </defs>
  <rect width="1600" height="1000" fill="url(#bgG)"/>
  <rect width="1600" height="1000" fill="url(#dots)"/>
  <ellipse cx="240" cy="170" rx="600" ry="430" fill="url(#gA)"/>
  <ellipse cx="1380" cy="850" rx="620" ry="470" fill="url(#gB)"/>
  <rect width="1600" height="1000" fill="url(#vig)"/>
  <clipPath id="c9"><rect x="300" y="280" width="420" height="440"/></clipPath><g>
      <rect x="300" y="280" width="420" height="440" rx="18" fill="#191919" stroke="rgba(255,255,255,0.10)" filter="url(#sh)"/>
      <g clip-path="url(#c9)">
        <rect x="330" y="310" width="140" height="12" rx="5" fill="#A29C93" />
        <rect x="330" y="340" width="200" height="8" rx="5" fill="#706B64" />
        <rect x="330" y="360" width="240" height="8" rx="5" fill="#706B64" />
        <line x1="330" y1="388" x2="690" y2="388" stroke="rgba(255,255,255,0.10)" stroke-width="2" />
        <rect x="330" y="412" width="160" height="8" rx="5" fill="#706B64" />
        <rect x="330" y="432" width="210" height="8" rx="5" fill="#706B64" />
        <rect x="330" y="452" width="120" height="8" rx="5" fill="#706B64" />
        <line x1="330" y1="480" x2="690" y2="480" stroke="rgba(255,255,255,0.10)" stroke-width="2" />
        <rect x="330" y="504" width="90" height="8" rx="5" fill="#D97A4F" />
        <rect x="430" y="504" width="90" height="8" rx="5" fill="#706B64" />
        <rect x="330" y="616" width="180" height="26" rx="5" fill="#D97A4F" />
        <rect x="348" y="628" width="90" height="8" rx="5" fill="#0B6B5F" />
      </g>
      <line x1="720" y1="500" x2="810" y2="500" stroke="#D97A4F" stroke-width="4" />
      <path d="M810 494 l16 6 -16 6 z" fill="#D97A4F"/>
      <circle cx="846" cy="500" r="30" fill="rgba(169,92,61,0.14)" />
      <circle cx="846" cy="500" r="30" fill="none" stroke="#A95C3D" stroke-opacity='0.6'/>
      <circle cx="846" cy="500" r="16" fill="#A95C3D" />
      <path d="M836 500 l8 8 14 -16" stroke="#090909" stroke-width="4" fill="none"/>
      <line x1="876" y1="500" x2="966" y2="500" stroke="#D97A4F" stroke-width="4" />
      <path d="M966 494 l16 6 -16 6 z" fill="#D97A4F"/>
      <circle cx="1002" cy="500" r="30" fill="rgba(169,92,61,0.14)" />
      <circle cx="1002" cy="500" r="30" fill="none" stroke="#A95C3D" stroke-opacity='0.6'/>
      <circle cx="1002" cy="500" r="16" fill="#A95C3D" />
      <path d="M1002 494 l-8 0 8 12 8 -12 z" fill="#090909" transform="rotate(0 1002 500)"/>
      <rect x="1052" y="430" width="240" height="150" rx="20" fill="#141414" stroke="#D97A4F" stroke-opacity="0.5" filter="url(#sh)"/>
      <path d="M1092 472 l0 -34 24 -24 90 0 0 96 0 0 -114 0 z" fill="none" stroke="#D97A4F" stroke-width="4"/>
      <path d="M1116 438 l0 34 24 0" fill="none" stroke="#D97A4F" stroke-width="4"/>
      <path d="M1156 478 l34 0" stroke="#D97A4F" stroke-width="4"/>
      <path d="M1156 494 l48 0" stroke="#D97A4F" stroke-width="4"/>
      <circle cx="1206" cy="516" r="12" fill="none" stroke="#D97A4F" stroke-width="3"/>
      <path d="M1200 516 l5 5 8 -10" stroke="#D97A4F" stroke-width="3" fill="none"/>
      <rect x="1160" y="420" width="24" height="90" rx="12" fill="#191919" stroke="rgba(255,255,255,0.10)"/>
      <rect x="1160" y="420" width="24" height="44" rx="12" fill="#D97A4F" fill-opacity="0.35"/>
      <rect x="1118" y="420" width="24" height="90" rx="12" fill="#191919" stroke="rgba(255,255,255,0.10)"/>
      <rect x="1118" y="420" width="24" height="66" rx="12" fill="#A95C3D" fill-opacity="0.35"/>
      <circle cx="300" cy="220" r="12" fill="#D97A4F" opacity='0.5'/>
      <circle cx="1420" cy="780" r="12" fill="#A95C3D" opacity='0.5'/>
      <circle cx="360" cy="760" r="90" fill="none" stroke="rgba(255,255,255,0.10)" stroke-opacity='0.35'/>
      </g></svg>